<mxfile host="app.diagrams.net" modified="2023-10-16T18:13:06.280Z" agent="Mozilla/5.0 (X11; Linux x86_64) AppleWebKit/537.36 (KHTML, like Gecko) Chrome/118.0.0.0 Safari/537.36" etag="yC49Buo6ccOFy8QIOEpS" version="22.0.4" type="google">
  <diagram name="Страница — 1" id="y4xzhwN29KWo9kaKiG93">
    <mxGraphModel grid="1" page="1" gridSize="10" guides="1" tooltips="1" connect="1" arrows="1" fold="1" pageScale="1" pageWidth="827" pageHeight="1169" math="0" shadow="0">
      <root>
        <mxCell id="0" />
        <mxCell id="1" parent="0" />
        <mxCell id="YecXGJ-e3PZKIjaYAuMw-1" value="&lt;font style=&quot;font-size: 13px;&quot;&gt;Составьте блок-схему&lt;br&gt;нахождения минимального&lt;br&gt;значения из четырех чисел&lt;/font&gt;" style="text;whiteSpace=wrap;html=1;" vertex="1" parent="1">
          <mxGeometry x="10" y="10" width="190" height="70" as="geometry" />
        </mxCell>
        <mxCell id="YecXGJ-e3PZKIjaYAuMw-4" value="" style="edgeStyle=orthogonalEdgeStyle;rounded=0;orthogonalLoop=1;jettySize=auto;html=1;" edge="1" parent="1" source="YecXGJ-e3PZKIjaYAuMw-2" target="YecXGJ-e3PZKIjaYAuMw-3">
          <mxGeometry relative="1" as="geometry" />
        </mxCell>
        <mxCell id="YecXGJ-e3PZKIjaYAuMw-2" value="Start" style="ellipse;whiteSpace=wrap;html=1;" vertex="1" parent="1">
          <mxGeometry x="360" y="20" width="120" height="80" as="geometry" />
        </mxCell>
        <mxCell id="YecXGJ-e3PZKIjaYAuMw-6" value="" style="edgeStyle=orthogonalEdgeStyle;rounded=0;orthogonalLoop=1;jettySize=auto;html=1;" edge="1" parent="1" source="YecXGJ-e3PZKIjaYAuMw-3" target="YecXGJ-e3PZKIjaYAuMw-5">
          <mxGeometry relative="1" as="geometry" />
        </mxCell>
        <mxCell id="YecXGJ-e3PZKIjaYAuMw-3" value="a, b, c, d" style="shape=parallelogram;perimeter=parallelogramPerimeter;whiteSpace=wrap;html=1;fixedSize=1;" vertex="1" parent="1">
          <mxGeometry x="360" y="140" width="120" height="60" as="geometry" />
        </mxCell>
        <mxCell id="YecXGJ-e3PZKIjaYAuMw-8" value="" style="edgeStyle=orthogonalEdgeStyle;rounded=0;orthogonalLoop=1;jettySize=auto;html=1;" edge="1" parent="1" source="YecXGJ-e3PZKIjaYAuMw-5" target="YecXGJ-e3PZKIjaYAuMw-7">
          <mxGeometry relative="1" as="geometry" />
        </mxCell>
        <mxCell id="YecXGJ-e3PZKIjaYAuMw-11" value="Yes" style="edgeLabel;html=1;align=center;verticalAlign=middle;resizable=0;points=[];" connectable="0" vertex="1" parent="YecXGJ-e3PZKIjaYAuMw-8">
          <mxGeometry x="-0.0667" y="2" relative="1" as="geometry">
            <mxPoint y="-12" as="offset" />
          </mxGeometry>
        </mxCell>
        <mxCell id="YecXGJ-e3PZKIjaYAuMw-10" value="" style="edgeStyle=orthogonalEdgeStyle;rounded=0;orthogonalLoop=1;jettySize=auto;html=1;" edge="1" parent="1" source="YecXGJ-e3PZKIjaYAuMw-5" target="YecXGJ-e3PZKIjaYAuMw-9">
          <mxGeometry relative="1" as="geometry" />
        </mxCell>
        <mxCell id="YecXGJ-e3PZKIjaYAuMw-12" value="No" style="edgeLabel;html=1;align=center;verticalAlign=middle;resizable=0;points=[];" connectable="0" vertex="1" parent="YecXGJ-e3PZKIjaYAuMw-10">
          <mxGeometry x="-0.1667" y="-2" relative="1" as="geometry">
            <mxPoint x="5" y="-12" as="offset" />
          </mxGeometry>
        </mxCell>
        <mxCell id="YecXGJ-e3PZKIjaYAuMw-5" value="a &amp;gt; b" style="rhombus;whiteSpace=wrap;html=1;" vertex="1" parent="1">
          <mxGeometry x="370" y="270" width="100" height="80" as="geometry" />
        </mxCell>
        <mxCell id="YecXGJ-e3PZKIjaYAuMw-14" value="" style="edgeStyle=orthogonalEdgeStyle;rounded=0;orthogonalLoop=1;jettySize=auto;html=1;" edge="1" parent="1" source="YecXGJ-e3PZKIjaYAuMw-7" target="YecXGJ-e3PZKIjaYAuMw-13">
          <mxGeometry relative="1" as="geometry">
            <Array as="points">
              <mxPoint x="240" y="400" />
              <mxPoint x="420" y="400" />
            </Array>
          </mxGeometry>
        </mxCell>
        <mxCell id="YecXGJ-e3PZKIjaYAuMw-7" value="min1 = b" style="whiteSpace=wrap;html=1;" vertex="1" parent="1">
          <mxGeometry x="190" y="280" width="100" height="60" as="geometry" />
        </mxCell>
        <mxCell id="YecXGJ-e3PZKIjaYAuMw-15" style="edgeStyle=orthogonalEdgeStyle;rounded=0;orthogonalLoop=1;jettySize=auto;html=1;entryX=0.5;entryY=0;entryDx=0;entryDy=0;" edge="1" parent="1" source="YecXGJ-e3PZKIjaYAuMw-9" target="YecXGJ-e3PZKIjaYAuMw-13">
          <mxGeometry relative="1" as="geometry">
            <Array as="points">
              <mxPoint x="600" y="400" />
              <mxPoint x="420" y="400" />
            </Array>
          </mxGeometry>
        </mxCell>
        <mxCell id="YecXGJ-e3PZKIjaYAuMw-9" value="min1 = a" style="whiteSpace=wrap;html=1;" vertex="1" parent="1">
          <mxGeometry x="550" y="280" width="100" height="60" as="geometry" />
        </mxCell>
        <mxCell id="YecXGJ-e3PZKIjaYAuMw-17" value="" style="edgeStyle=orthogonalEdgeStyle;rounded=0;orthogonalLoop=1;jettySize=auto;html=1;" edge="1" parent="1" source="YecXGJ-e3PZKIjaYAuMw-13" target="YecXGJ-e3PZKIjaYAuMw-16">
          <mxGeometry relative="1" as="geometry" />
        </mxCell>
        <mxCell id="YecXGJ-e3PZKIjaYAuMw-21" value="No" style="edgeLabel;html=1;align=center;verticalAlign=middle;resizable=0;points=[];" connectable="0" vertex="1" parent="YecXGJ-e3PZKIjaYAuMw-17">
          <mxGeometry x="-0.0667" y="2" relative="1" as="geometry">
            <mxPoint y="-8" as="offset" />
          </mxGeometry>
        </mxCell>
        <mxCell id="YecXGJ-e3PZKIjaYAuMw-19" value="" style="edgeStyle=orthogonalEdgeStyle;rounded=0;orthogonalLoop=1;jettySize=auto;html=1;" edge="1" parent="1" source="YecXGJ-e3PZKIjaYAuMw-13" target="YecXGJ-e3PZKIjaYAuMw-18">
          <mxGeometry relative="1" as="geometry" />
        </mxCell>
        <mxCell id="YecXGJ-e3PZKIjaYAuMw-20" value="Yes" style="edgeLabel;html=1;align=center;verticalAlign=middle;resizable=0;points=[];" connectable="0" vertex="1" parent="YecXGJ-e3PZKIjaYAuMw-19">
          <mxGeometry x="-0.1667" y="4" relative="1" as="geometry">
            <mxPoint y="-14" as="offset" />
          </mxGeometry>
        </mxCell>
        <mxCell id="YecXGJ-e3PZKIjaYAuMw-13" value="c &amp;gt; d" style="rhombus;whiteSpace=wrap;html=1;" vertex="1" parent="1">
          <mxGeometry x="370" y="440" width="100" height="80" as="geometry" />
        </mxCell>
        <mxCell id="YecXGJ-e3PZKIjaYAuMw-24" style="edgeStyle=orthogonalEdgeStyle;rounded=0;orthogonalLoop=1;jettySize=auto;html=1;" edge="1" parent="1" source="YecXGJ-e3PZKIjaYAuMw-16">
          <mxGeometry relative="1" as="geometry">
            <mxPoint x="420" y="610" as="targetPoint" />
            <Array as="points">
              <mxPoint x="600" y="560" />
              <mxPoint x="421" y="560" />
            </Array>
          </mxGeometry>
        </mxCell>
        <mxCell id="YecXGJ-e3PZKIjaYAuMw-16" value="min2 = c" style="whiteSpace=wrap;html=1;" vertex="1" parent="1">
          <mxGeometry x="550" y="450" width="100" height="60" as="geometry" />
        </mxCell>
        <mxCell id="YecXGJ-e3PZKIjaYAuMw-23" value="" style="edgeStyle=orthogonalEdgeStyle;rounded=0;orthogonalLoop=1;jettySize=auto;html=1;" edge="1" parent="1" source="YecXGJ-e3PZKIjaYAuMw-18" target="YecXGJ-e3PZKIjaYAuMw-22">
          <mxGeometry relative="1" as="geometry">
            <Array as="points">
              <mxPoint x="240" y="560" />
              <mxPoint x="420" y="560" />
            </Array>
          </mxGeometry>
        </mxCell>
        <mxCell id="YecXGJ-e3PZKIjaYAuMw-18" value="min2 = d" style="whiteSpace=wrap;html=1;" vertex="1" parent="1">
          <mxGeometry x="190" y="450" width="100" height="60" as="geometry" />
        </mxCell>
        <mxCell id="YecXGJ-e3PZKIjaYAuMw-26" value="" style="edgeStyle=orthogonalEdgeStyle;rounded=0;orthogonalLoop=1;jettySize=auto;html=1;" edge="1" parent="1" source="YecXGJ-e3PZKIjaYAuMw-22" target="YecXGJ-e3PZKIjaYAuMw-25">
          <mxGeometry relative="1" as="geometry" />
        </mxCell>
        <mxCell id="YecXGJ-e3PZKIjaYAuMw-27" value="Yes" style="edgeLabel;html=1;align=center;verticalAlign=middle;resizable=0;points=[];" connectable="0" vertex="1" parent="YecXGJ-e3PZKIjaYAuMw-26">
          <mxGeometry x="-0.25" y="3" relative="1" as="geometry">
            <mxPoint y="-13" as="offset" />
          </mxGeometry>
        </mxCell>
        <mxCell id="YecXGJ-e3PZKIjaYAuMw-29" value="" style="edgeStyle=orthogonalEdgeStyle;rounded=0;orthogonalLoop=1;jettySize=auto;html=1;" edge="1" parent="1" source="YecXGJ-e3PZKIjaYAuMw-22" target="YecXGJ-e3PZKIjaYAuMw-28">
          <mxGeometry relative="1" as="geometry" />
        </mxCell>
        <mxCell id="YecXGJ-e3PZKIjaYAuMw-30" value="No" style="edgeLabel;html=1;align=center;verticalAlign=middle;resizable=0;points=[];" connectable="0" vertex="1" parent="YecXGJ-e3PZKIjaYAuMw-29">
          <mxGeometry x="-0.15" y="-1" relative="1" as="geometry">
            <mxPoint x="3" y="-11" as="offset" />
          </mxGeometry>
        </mxCell>
        <mxCell id="YecXGJ-e3PZKIjaYAuMw-22" value="min1 &amp;gt; min2" style="rhombus;whiteSpace=wrap;html=1;" vertex="1" parent="1">
          <mxGeometry x="360" y="610" width="120" height="80" as="geometry" />
        </mxCell>
        <mxCell id="YecXGJ-e3PZKIjaYAuMw-32" value="" style="edgeStyle=orthogonalEdgeStyle;rounded=0;orthogonalLoop=1;jettySize=auto;html=1;" edge="1" parent="1" source="YecXGJ-e3PZKIjaYAuMw-25" target="YecXGJ-e3PZKIjaYAuMw-31">
          <mxGeometry relative="1" as="geometry">
            <Array as="points">
              <mxPoint x="240" y="710" />
              <mxPoint x="420" y="710" />
            </Array>
          </mxGeometry>
        </mxCell>
        <mxCell id="YecXGJ-e3PZKIjaYAuMw-25" value="min 2" style="shape=document;whiteSpace=wrap;html=1;boundedLbl=1;" vertex="1" parent="1">
          <mxGeometry x="190" y="610" width="100" height="80" as="geometry" />
        </mxCell>
        <mxCell id="YecXGJ-e3PZKIjaYAuMw-33" style="edgeStyle=orthogonalEdgeStyle;rounded=0;orthogonalLoop=1;jettySize=auto;html=1;" edge="1" parent="1" source="YecXGJ-e3PZKIjaYAuMw-28">
          <mxGeometry relative="1" as="geometry">
            <mxPoint x="420" y="740" as="targetPoint" />
            <Array as="points">
              <mxPoint x="600" y="710" />
              <mxPoint x="421" y="710" />
            </Array>
          </mxGeometry>
        </mxCell>
        <mxCell id="YecXGJ-e3PZKIjaYAuMw-28" value="min 1" style="shape=document;whiteSpace=wrap;html=1;boundedLbl=1;" vertex="1" parent="1">
          <mxGeometry x="550" y="610" width="100" height="80" as="geometry" />
        </mxCell>
        <mxCell id="YecXGJ-e3PZKIjaYAuMw-31" value="End" style="ellipse;whiteSpace=wrap;html=1;" vertex="1" parent="1">
          <mxGeometry x="380" y="740" width="80" height="80" as="geometry" />
        </mxCell>
      </root>
    </mxGraphModel>
  </diagram>
</mxfile>
